<svg width="480" height="480" viewBox="0 0 480 480" fill="none" xmlns="http://www.w3.org/2000/svg" role="img" aria-label="GitHub activity dashboard">
  <defs>
    <radialGradient id="rubyGlowA" cx="0" cy="0" r="1" gradientUnits="userSpaceOnUse" gradientTransform="translate(192 264) rotate(90) scale(150 190)">
      <stop stop-color="#883E43" stop-opacity="0.45"/>
      <stop offset="0.35" stop-color="#64272D" stop-opacity="0.25"/>
      <stop offset="0.7" stop-color="#0D1117" stop-opacity="0"/>
    </radialGradient>
    <radialGradient id="rubyGlowB" cx="0" cy="0" r="1" gradientUnits="userSpaceOnUse" gradientTransform="translate(336 144) rotate(90) scale(110 135)">
      <stop stop-color="#501E23" stop-opacity="0.3"/>
      <stop offset="0.6" stop-color="#0D1117" stop-opacity="0"/>
    </radialGradient>
    <radialGradient id="vignette" cx="0" cy="0" r="1" gradientUnits="userSpaceOnUse" gradientTransform="translate(240 240) rotate(90) scale(240)">
      <stop offset="0.15" stop-color="#0D1117" stop-opacity="0"/>
      <stop offset="0.5" stop-color="#0D1117" stop-opacity="0.6"/>
      <stop offset="0.8" stop-color="#0D1117"/>
    </radialGradient>
    <style>
      .mono { font-family: "Space Mono", "SFMono-Regular", Consolas, monospace; fill: #F0DDD8; }
      .serif { font-family: "Cormorant Garamond", Georgia, serif; fill: #F0DDD8; }
      .tiny { font-size: 9px; letter-spacing: 1.6px; text-transform: uppercase; fill: rgba(240, 221, 216, 0.5); }
      .small { font-size: 12px; letter-spacing: 0.2px; }
      .legend-label { font-family: "Space Mono", "SFMono-Regular", Consolas, monospace; font-size: 8px; letter-spacing: 0.7px; fill: rgba(240, 221, 216, 0.82); text-transform: uppercase; }
      .legend-value { font-family: "Space Mono", "SFMono-Regular", Consolas, monospace; font-size: 8px; letter-spacing: 0.5px; fill: rgba(240, 221, 216, 0.5); text-anchor: end; }
    </style>
  </defs>
  <rect width="480" height="480" fill="#0D1117"/>
  <rect width="480" height="480" fill="url(#rubyGlowA)"/>
  <rect width="480" height="480" fill="url(#rubyGlowB)"/>
  <rect width="480" height="480" fill="url(#vignette)"/>

  <line x1="24" y1="81.5" x2="456" y2="81.5" stroke="rgba(240, 221, 216, 0.12)"/>
  <text x="24" y="54" class="mono small" font-weight="700">Past 30 days activity</text>

  <text x="117" y="170" class="serif" font-size="66" font-style="italic" text-anchor="middle">182</text>
  <text x="122" y="206" class="mono tiny" text-anchor="middle" letter-spacing="3.2px">COMMITS</text>

  <line x1="195.5" y1="102" x2="195.5" y2="211" stroke="rgba(240, 221, 216, 0.12)"/>
  <circle cx="271" cy="151" r="38" stroke="rgba(240, 221, 216, 0.08)" stroke-width="21"/>
  <path d="M 271.000 113.000 A 38.000 38.000 0 0 1 289.307 184.300" fill="none" stroke="#F0DDD8" stroke-width="21" stroke-linecap="butt"></path><path d="M 289.307 184.300 A 38.000 38.000 0 0 1 234.860 162.743" fill="none" stroke="#C47A7F" stroke-width="21" stroke-linecap="butt"></path><path d="M 234.860 162.743 A 38.000 38.000 0 0 1 244.987 123.299" fill="none" stroke="#883E43" stroke-width="21" stroke-linecap="butt"></path><path d="M 244.987 123.299 A 38.000 38.000 0 0 1 271.000 113.000" fill="none" stroke="#5C262A" stroke-width="21" stroke-linecap="butt"></path>
  <circle cx="271" cy="151" r="17" fill="#0D1117"/>
  <text x="352" y="110" class="mono tiny">LANGUAGE</text>
  <circle cx="341" cy="124" r="4" fill="#F0DDD8"></circle><text x="352" y="126" class="legend-label">TypeScript</text><text x="456" y="126" class="legend-value">42.0%</text><circle cx="341" cy="142" r="4" fill="#C47A7F"></circle><text x="352" y="144" class="legend-label">Python</text><text x="456" y="144" class="legend-value">28.0%</text><circle cx="341" cy="160" r="4" fill="#883E43"></circle><text x="352" y="162" class="legend-label">Go</text><text x="456" y="162" class="legend-value">18.0%</text><circle cx="341" cy="178" r="4" fill="#5C262A"></circle><text x="352" y="180" class="legend-label">Other</text><text x="456" y="180" class="legend-value">12.0%</text>

  <line x1="24" y1="240.5" x2="456" y2="240.5" stroke="rgba(240, 221, 216, 0.12)" stroke-opacity="0.4"/>
  <text x="240" y="284" class="mono tiny" text-anchor="middle">CODE LINES CHANGED</text>
  <text x="240" y="352" class="serif" font-size="56" font-style="italic" text-anchor="middle">3.5M</text>

  <line x1="24" y1="410.5" x2="456" y2="410.5" stroke="rgba(240, 221, 216, 0.12)"/>
  <line x1="154.5" y1="423" x2="154.5" y2="457" stroke="rgba(240, 221, 216, 0.12)"/>
  <line x1="300.5" y1="423" x2="300.5" y2="457" stroke="rgba(240, 221, 216, 0.12)"/>

  <text x="24" y="428" class="mono tiny">ADDITIONS</text>
  <text x="24" y="449" class="mono small" font-weight="700">+ 2.4M</text>

  <text x="179" y="428" class="mono tiny">DELETIONS</text>
  <text x="179" y="449" class="mono small" font-weight="700">- 1.1M</text>

  <text x="324" y="428" class="mono tiny">REPOSITORIES</text>
  <text x="324" y="449" class="mono small" font-weight="700">12 REPOS</text>
</svg>
